<svg xmlns="http://www.w3.org/2000/svg" version="1.1" xmlns:xlink="http://www.w3.org/1999/xlink" xmlns:svgjs="http://svgjs.dev/svgjs" width="1500" height="306" viewBox="0 0 1500 306"><g transform="matrix(1,0,0,1,-0.9090424580473382,-1.436137635513603)"><svg viewBox="0 0 396 81" data-background-color="#3d3028" preserveAspectRatio="xMidYMid meet" height="306" width="1500" xmlns="http://www.w3.org/2000/svg" xmlns:xlink="http://www.w3.org/1999/xlink"><g id="tight-bounds" transform="matrix(1,0,0,1,0.23998720892450365,0.3801540799888983)"><svg viewBox="0 0 395.52 80.23966625787125" height="80.23966625787125" width="395.52"><g><svg viewBox="0 0 518.7325844045575 105.23596644848485" height="80.23966625787125" width="395.52"><g transform="matrix(1,0,0,1,0,14.544189284848485)"><svg viewBox="0 0 395.52 76.14758787878787" height="76.14758787878787" width="395.52"><g id="textblocktransform"><svg viewBox="0 0 395.52 76.14758787878787" height="76.14758787878787" width="395.52" id="textblock"><g><svg viewBox="0 0 395.52 76.14758787878787" height="76.14758787878787" width="395.52"><g transform="matrix(1,0,0,1,0,0)"><svg width="395.52" viewBox="3.6 -36 246.08 47.65" height="76.14758787878787" data-palette-color="#f1ede4"><g class="wordmark-text-0" data-fill-palette-color="primary" id="text-0"><path d="M20.15 0.75L20.15 0.75Q14.7 0.75 11-1.58 7.3-3.9 5.45-8.03 3.6-12.15 3.6-17.6L3.6-17.6Q3.6-23.05 5.45-27.2 7.3-31.35 11-33.68 14.7-36 20.15-36L20.15-36Q23.4-36 26-35.45 28.6-34.9 31.15-34.3L31.15-34.3 30.65-27 27.75-27.2 27.75-29.5Q27.75-30.05 27.38-31.28 27-32.5 26.75-33.3L26.75-33.3 28.15-31.7Q26.45-32.3 24.18-32.77 21.9-33.25 20-33.25L20-33.25Q16.1-33.25 13.5-31.18 10.9-29.1 9.63-25.58 8.35-22.05 8.35-17.65L8.35-17.65Q8.35-13.3 9.65-9.75 10.95-6.2 13.53-4.1 16.1-2 20-2L20-2Q21.75-2 24.08-2.4 26.4-2.8 28.2-3.4L28.2-3.4 26.9-1.8Q27.15-2.95 27.48-4.4 27.8-5.85 27.8-6.4L27.8-6.4 27.8-9.8Q27.8-10.45 27.7-11.45 27.6-12.45 27.48-13.4 27.35-14.35 27.25-14.9L27.25-14.9 29-13.25 22-13.8 22.25-16.55 27.8-16.55Q28.3-16.55 29.3-16.6 30.3-16.65 31.15-16.7L31.15-16.7 32.05-15.85Q31.95-14.6 31.85-13.23 31.75-11.85 31.68-10.55 31.6-9.25 31.6-8.2L31.6-8.2 31.6-0.95Q29.1-0.35 26.25 0.2 23.4 0.75 20.15 0.75ZM38.15 0.25L38.15 0.25 37.9-2.15 43.5-3.3 41.5-1.45Q41.6-1.85 41.77-2.85 41.95-3.85 42.12-4.98 42.3-6.1 42.3-6.7L42.3-6.7 42.3-17.8Q42.3-18.45 42.17-19.48 42.05-20.5 41.87-21.6 41.7-22.7 41.55-23.45L41.55-23.45 43.5-21.15 38-22.1 38.25-24.7 45.45-24.7 46.4-23.8Q46.35-23.05 46.27-21.73 46.2-20.4 46.15-18.95 46.1-17.5 46.1-16.3L46.1-16.3 46.1-8.2Q46.1-6.25 46.25-4.2 46.4-2.15 46.55-1.25L46.55-1.25 44.7-3.1 50.35-2.6 50 0 43.65 0Q43.15 0 42.2 0.05 41.25 0.1 40.17 0.15 39.1 0.2 38.15 0.25ZM43.45-29.6L43.45-29.6Q42.05-29.6 41.3-30.45 40.55-31.3 40.55-32.7L40.55-32.7Q40.55-34.15 41.3-35.02 42.05-35.9 43.45-35.9L43.45-35.9Q44.85-35.9 45.6-35.08 46.35-34.25 46.35-32.7L46.35-32.7Q46.35-31.3 45.62-30.45 44.9-29.6 43.45-29.6ZM60.9 0.5L60.9 0.5Q57.55 0.5 55.6-1.23 53.65-2.95 53.65-5.85L53.65-5.85Q53.65-8.45 55.32-10.18 57-11.9 60.35-12.45L60.35-12.45 69.1-13.9 69.1-11.45 60.95-9.9Q59.45-9.65 58.6-8.75 57.75-7.85 57.75-6.55L57.75-6.55Q57.75-4.65 58.72-3.58 59.7-2.5 61.5-2.5L61.5-2.5Q64.15-2.5 66.12-4.2 68.1-5.9 68.45-8.4L68.45-8.4 68.45-15.45Q68.45-19.05 67.25-20.83 66.05-22.6 63.65-22.6L63.65-22.6Q62.6-22.6 61.4-22.4 60.2-22.2 59.15-21.85 58.1-21.5 57.55-21.1L57.55-21.1 59.1-23.25 58.5-19.5 58.55-17.45 55.65-17.3 55.15-23.95Q56.65-24.35 58.15-24.6 59.65-24.85 61.15-24.98 62.65-25.1 64.15-25.1L64.15-25.1Q68.6-25.1 70.4-22.68 72.2-20.25 72.2-14.35L72.2-14.35 72.2-8.2Q72.2-5.95 72.47-4.28 72.75-2.6 72.95-1.65L72.95-1.65 71.3-3.15 76.2-2.6 75.9 0 69.65 0 68.65-5.65 69.55-5.8Q69.45-4.4 68.22-2.93 67-1.45 65.07-0.48 63.15 0.5 60.9 0.5ZM79.29 0.25L79.29 0.25 79.04-2.15 84.64-3.3 82.64-1.45Q82.74-1.85 82.92-2.85 83.09-3.85 83.27-4.98 83.44-6.1 83.44-6.7L83.44-6.7 83.44-17.8Q83.44-18.45 83.29-19.58 83.14-20.7 82.94-21.83 82.74-22.95 82.64-23.45L82.64-23.45 84.64-21.15 79.14-22.1 79.39-24.7 85.59-24.7 86.54-23.8 87.24-16.3 86.14-19.2Q86.89-21.1 88.07-22.4 89.24-23.7 90.84-24.4 92.44-25.1 94.34-25.1L94.34-25.1Q97.89-25.1 99.69-23.68 101.49-22.25 102.14-19.65 102.79-17.05 102.79-13.55L102.79-13.55 102.79-8.2Q102.79-6.35 102.97-4.55 103.14-2.75 103.29-1.75L103.29-1.75 101.49-3.1 107.14-2.6 106.79 0 100.39 0Q100.19 0 99.29 0.05 98.39 0.1 97.32 0.15 96.24 0.2 95.39 0.25L95.39 0.25 95.14-2.15 100.14-3.35 98.29-2.2Q98.44-2.7 98.62-3.43 98.79-4.15 98.92-5 99.04-5.85 99.04-6.7L99.04-6.7 99.04-13.6Q99.04-15.8 98.64-17.78 98.24-19.75 97.09-21 95.94-22.25 93.74-22.25L93.74-22.25Q90.69-22.25 88.97-19.85 87.24-17.45 87.24-13.75L87.24-13.75 87.24-8.2Q87.24-6.25 87.39-4.2 87.54-2.15 87.69-1.25L87.69-1.25 85.84-3.1 91.49-2.6 91.14 0 84.79 0Q84.29 0 83.34 0.05 82.39 0.1 81.32 0.15 80.24 0.2 79.29 0.25ZM119.29 0.75L119.29 0.75Q115.94 0.75 114.82-1.05 113.69-2.85 113.69-6.2L113.69-6.2 113.69-23.75 115.29-22.1 109.49-22.1 109.34-24.1Q109.99-24.35 110.94-24.68 111.89-25 112.87-25.35 113.84-25.7 114.44-25.9L114.44-25.9 112.74-24.25Q112.99-24.55 113.42-25.33 113.84-26.1 114.29-27.08 114.74-28.05 115.14-28.85 115.54-29.65 115.69-30L115.69-30 117.49-29.8 117.49-6Q117.49-4.3 118.09-3.35 118.69-2.4 120.39-2.4L120.39-2.4Q121.49-2.4 122.67-2.93 123.84-3.45 124.79-4.3L124.79-4.3 126.14-2.15Q124.34-0.7 122.62 0.03 120.89 0.75 119.29 0.75ZM124.64-22.1L116.64-22.1 116.64-24.7 124.89-24.7 124.64-22.1Z" fill="#f1ede4" data-fill-palette-color="primary"></path><path d="M151.79 0.75L151.79 0.75Q148.14 0.75 145.19-0.15 142.24-1.05 140.84-1.9L140.84-1.9 141.59-9.45 144.84-9.15 144.84-6.85Q144.84-6.6 144.91-6.03 144.99-5.45 145.09-4.78 145.19-4.1 145.31-3.53 145.44-2.95 145.54-2.65L145.54-2.65 144.64-3.8Q145.94-3.15 147.86-2.63 149.79-2.1 151.94-2.1L151.94-2.1Q155.04-2.1 156.84-3.78 158.64-5.45 158.64-8.5L158.64-8.5Q158.64-10.6 157.39-12.03 156.14-13.45 154.19-14.58 152.24-15.7 150.06-16.75 147.89-17.8 145.94-19.13 143.99-20.45 142.74-22.3 141.49-24.15 141.49-26.8L141.49-26.8Q141.49-29.8 142.91-31.85 144.34-33.9 146.79-34.95 149.24-36 152.29-36L152.29-36Q154.74-36 157.34-35.5 159.94-35 162.34-34.4L162.34-34.4 161.64-27 158.74-27.35 158.74-29.45Q158.74-29.8 158.59-30.53 158.44-31.25 158.24-32.08 158.04-32.9 157.84-33.55L157.84-33.55 159.24-31.7Q157.09-32.85 155.59-33.13 154.09-33.4 152.04-33.4L152.04-33.4Q149.74-33.4 148.01-31.98 146.29-30.55 146.29-27.75L146.29-27.75Q146.29-25.75 147.54-24.38 148.79-23 150.79-21.88 152.79-20.75 154.99-19.65 157.19-18.55 159.19-17.15 161.19-15.75 162.44-13.8 163.69-11.85 163.69-9L163.69-9Q163.69-5.7 162.09-3.55 160.49-1.4 157.79-0.33 155.09 0.75 151.79 0.75ZM180.84 0.5L180.84 0.5Q177.04 0.5 174.49-1.15 171.94-2.8 170.66-5.68 169.39-8.55 169.39-12.3L169.39-12.3Q169.39-16.1 170.66-18.98 171.94-21.85 174.49-23.5 177.04-25.15 180.84-25.15L180.84-25.15Q186.54-25.15 189.36-21.63 192.19-18.1 192.19-12.3L192.19-12.3Q192.19-8.55 190.91-5.65 189.64-2.75 187.11-1.13 184.59 0.5 180.84 0.5ZM180.84-2.2L180.84-2.2Q183.54-2.2 185.09-3.7 186.64-5.2 187.26-7.53 187.89-9.85 187.89-12.3L187.89-12.3Q187.89-14.8 187.26-17.13 186.64-19.45 185.09-20.95 183.54-22.45 180.84-22.45L180.84-22.45Q178.14-22.45 176.59-20.98 175.04-19.5 174.36-17.18 173.69-14.85 173.69-12.3L173.69-12.3Q173.69-9.8 174.36-7.48 175.04-5.15 176.59-3.68 178.14-2.2 180.84-2.2ZM207.58 0.55L207.58 0.55Q204.08 0.55 202.36-0.93 200.63-2.4 200.08-5.03 199.53-7.65 199.53-11.05L199.53-11.05 199.53-17.8Q199.53-18.25 199.43-19.13 199.33-20 199.16-21.05 198.98-22.1 198.83-22.95L198.83-22.95 200.63-21.1 195.68-22.1 195.88-24.7 202.68-24.7 203.63-23.8Q203.58-22.75 203.48-21.35 203.38-19.95 203.33-18.6 203.28-17.25 203.28-16.3L203.28-16.3 203.28-9.15Q203.28-6.25 204.38-4.38 205.48-2.5 208.38-2.5L208.38-2.5Q210.53-2.5 211.93-3.65 213.33-4.8 214.06-6.63 214.78-8.45 214.78-10.4L214.78-10.4 214.78-17.8Q214.78-18.25 214.68-19.13 214.58-20 214.43-21.05 214.28-22.1 214.13-22.95L214.13-22.95 215.98-21.15 210.78-22.1 210.98-24.7 217.93-24.7 218.88-23.8Q218.83-22.75 218.76-21.35 218.68-19.95 218.63-18.6 218.58-17.25 218.58-16.3L218.58-16.3 218.58-8.2Q218.58-6.5 218.81-4.78 219.03-3.05 219.18-1.3L219.18-1.3 217.38-3.15 222.58-2.6 222.28 0 216.03 0 215.08-5.55 215.58-4.35Q215.28-3.75 214.41-2.58 213.53-1.4 211.91-0.43 210.28 0.55 207.58 0.55ZM225.43 11.65L225.43 11.65 225.18 9.2 230.23 8.05 228.23 9.95Q228.33 9.55 228.51 8.55 228.68 7.55 228.86 6.43 229.03 5.3 229.03 4.7L229.03 4.7 229.03-17.8Q229.03-18.45 228.86-19.58 228.68-20.7 228.48-21.83 228.28-22.95 228.18-23.45L228.18-23.45 230.23-21.15 224.73-22.1 224.98-24.7 231.18-24.7 232.13-23.8 232.53-18.95 232.23-19.75Q232.38-21.1 233.53-22.33 234.68-23.55 236.28-24.33 237.88-25.1 239.33-25.1L239.33-25.1Q244.23-25.1 246.96-21.88 249.68-18.65 249.68-12.8L249.68-12.8Q249.68-9 248.18-5.98 246.68-2.95 244.11-1.23 241.53 0.5 238.28 0.5L238.28 0.5Q236.78 0.5 235.18 0.03 233.58-0.45 232.03-1.25L232.03-1.25 232.08-4.8Q233.58-3.55 235.11-2.95 236.63-2.35 238.03-2.35L238.03-2.35Q241.63-2.35 243.58-5.05 245.53-7.75 245.53-12.75L245.53-12.75Q245.53-17.5 243.91-19.93 242.28-22.35 239.18-22.35L239.18-22.35Q236.28-22.35 234.53-20.13 232.78-17.9 232.78-14.3L232.78-14.3 232.78 3.2Q232.78 5.15 232.96 7.2 233.13 9.25 233.28 10.15L233.28 10.15 231.43 8.25 238.13 8.75 237.83 11.4 230.38 11.4Q229.88 11.4 229.06 11.45 228.23 11.5 227.28 11.55 226.33 11.6 225.43 11.65Z" fill="#d9bb63" data-fill-palette-color="accent"></path></g></svg></g></svg></g></svg></g></svg></g><g transform="matrix(1,0,0,1,413.4966179560727,0)"><svg viewBox="0 0 105.23596644848483 105.23596644848485" height="105.23596644848485" width="105.23596644848483"><g><svg></svg></g><g id="icon-0"><svg viewBox="0 0 105.23596644848483 105.23596644848485" height="105.23596644848485" width="105.23596644848483"><g><path transform="scale(1.05236,1.05236)" d="M30 100c-16.569 0-30-13.431-30-30v-40c0-16.569 13.431-30 30-30h40c16.569 0 30 13.431 30 30v40c0 16.569-13.431 30-30 30z" fill="#d9bb63" fill-rule="nonzero" stroke="none" stroke-width="1" stroke-linecap="butt" stroke-linejoin="miter" stroke-miterlimit="10" stroke-dasharray="" stroke-dashoffset="0" font-family="none" font-weight="none" font-size="none" text-anchor="none" style="mix-blend-mode: normal" data-fill-palette-color="accent"></path></g><g transform="matrix(1,0,0,1,26.676845440197706,21.04719328969697)"><svg viewBox="0 0 51.88227556808942 63.141579869090904" height="63.141579869090904" width="51.88227556808942"><g><svg xmlns="http://www.w3.org/2000/svg" xmlns:xlink="http://www.w3.org/1999/xlink" version="1.1" x="0" y="0" viewBox="14.173 13.721 64.479 78.472" enable-background="new 0 0 100 100" xml:space="preserve" height="63.141579869090904" width="51.88227556808942" class="icon-dxe-0" data-fill-palette-color="quaternary" id="dxe-0"><g fill="#3d3028" data-fill-palette-color="quaternary"><path d="M74.676 55.975H18.151A3.98 3.98 0 0 0 14.173 59.953C14.173 77.73 28.635 92.193 46.411 92.193 64.189 92.193 78.652 77.73 78.652 59.953A3.98 3.98 0 0 0 74.676 55.975M46.412 84.238C34.484 84.238 24.374 75.584 22.454 63.93H70.373C68.449 75.584 58.339 84.238 46.412 84.238" fill="#3d3028" data-fill-palette-color="quaternary"></path><path d="M43.462 43.909C44.454 45.894 45.392 47.77 45.392 49.188A3.983 3.983 0 0 0 49.37 53.165 3.98 3.98 0 0 0 53.347 49.188C53.347 45.887 51.936 43.067 50.56 40.315 49.372 37.933 48.25 35.683 48.25 33.441 48.25 31.202 49.372 28.953 50.572 26.545 51.937 23.816 53.347 20.994 53.347 17.7A3.98 3.98 0 0 0 49.37 13.721 3.983 3.983 0 0 0 45.392 17.7C45.392 19.114 44.454 20.992 43.457 22.986 41.976 25.948 40.297 29.304 40.297 33.44 40.296 37.576 41.975 40.936 43.462 43.909" fill="#3d3028" data-fill-palette-color="quaternary"></path><path d="M32.341 49.188A3.98 3.98 0 0 0 36.318 53.165 3.98 3.98 0 0 0 40.296 49.188C40.296 45.889 38.885 43.068 37.515 40.327 36.325 37.941 35.201 35.687 35.201 33.441 35.201 31.198 36.325 28.946 37.522 26.545 38.886 23.816 40.296 20.992 40.296 17.7A3.983 3.983 0 0 0 36.318 13.721 3.98 3.98 0 0 0 32.341 17.7C32.341 19.115 31.402 20.994 30.406 22.986 28.924 25.946 27.244 29.302 27.244 33.44S28.924 40.936 30.409 43.904C31.403 45.893 32.341 47.77 32.341 49.188" fill="#3d3028" data-fill-palette-color="quaternary"></path><path d="M56.512 43.906C57.507 45.893 58.446 47.769 58.446 49.188A3.983 3.983 0 0 0 62.425 53.165 3.98 3.98 0 0 0 66.401 49.188C66.401 45.878 64.926 42.935 63.624 40.337 62.431 37.946 61.304 35.69 61.304 33.441 61.304 31.194 62.43 28.938 63.624 26.546 64.927 23.947 66.401 21.003 66.401 17.7A3.98 3.98 0 0 0 62.425 13.721 3.984 3.984 0 0 0 58.446 17.7C58.446 19.115 57.507 20.993 56.508 22.986 55.027 25.947 53.346 29.302 53.346 33.44S55.026 40.937 56.512 43.906" fill="#3d3028" data-fill-palette-color="quaternary"></path></g></svg></g></svg></g></svg></g></svg></g></svg></g><defs></defs></svg><rect width="395.52" height="80.23966625787125" fill="none" stroke="none" visibility="hidden"></rect></g></svg></g></svg>